HIERARCHY
ROOT Hips
{
	OFFSET 0.000000 0.000000 0.000000
	CHANNELS 6 Xposition Yposition Zposition Zrotation Yrotation Xrotation 
	JOINT LowerBack
	{
		OFFSET 0.000000 0.000000 0.000000
		CHANNELS 3 Zrotation Yrotation Xrotation
		JOINT Spine
		{
			OFFSET 0.028270 2.035590 -0.193380
			CHANNELS 3 Zrotation Yrotation Xrotation
			JOINT Spine1
			{
				OFFSET 0.056720 2.048850 -0.042750
				CHANNELS 3 Zrotation Yrotation Xrotation
				JOINT Neck
				{
					OFFSET 0.000000 0.000000 0.000000
					CHANNELS 3 Zrotation Yrotation Xrotation
					JOINT Neck1
					{
						OFFSET -0.054170 1.746240 0.172020
						CHANNELS 3 Zrotation Yrotation Xrotation
						JOINT Head
						{
							OFFSET 0.104070 1.761360 -0.123970
							CHANNELS 3 Zrotation Yrotation Xrotation
							End Site
							{
								OFFSET 0.000000 0.000000 0.000000
							}
						}
					}
				}
				JOINT LeftShoulder
				{
					OFFSET 0.000000 0.000000 0.000000
					CHANNELS 3 Zrotation Yrotation Xrotation
					JOINT LeftArm
					{
						OFFSET 3.362410 1.200890 -0.311210
						CHANNELS 3 Zrotation Yrotation Xrotation
						JOINT LeftForeArm
						{
							OFFSET 4.983000 -0.000000 -0.000000
							CHANNELS 3 Zrotation Yrotation Xrotation
							JOINT LeftHand
							{
								OFFSET 3.483560 -0.000000 -0.000000
								CHANNELS 3 Zrotation Yrotation Xrotation
								JOINT LeftFingerBase
								{
									OFFSET 0.000000 0.000000 0.000000
									CHANNELS 3 Zrotation Yrotation Xrotation
									JOINT LeftHandIndex1
									{
										OFFSET 0.715260 -0.000000 -0.000000
										CHANNELS 3 Zrotation Yrotation Xrotation
										End Site
										{
											OFFSET 0.000000 0.000000 0.000000
										}
									}
								}
								JOINT LThumb
								{
									OFFSET 0.000000 0.000000 0.000000
									CHANNELS 3 Zrotation Yrotation Xrotation
									End Site
									{
										OFFSET 0.000000 0.000000 0.000000
									}
								}
							}
						}
					}
				}
				JOINT RightShoulder
				{
					OFFSET 0.000000 0.000000 0.000000
					CHANNELS 3 Zrotation Yrotation Xrotation
					JOINT RightArm
					{
						OFFSET -3.136600 1.374050 -0.404650
						CHANNELS 3 Zrotation Yrotation Xrotation
						JOINT RightForeArm
						{
							OFFSET -5.241900 -0.000000 -0.000000
							CHANNELS 3 Zrotation Yrotation Xrotation
							JOINT RightHand
							{
								OFFSET -3.444170 -0.000000 -0.000000
								CHANNELS 3 Zrotation Yrotation Xrotation
								JOINT RightFingerBase
								{
									OFFSET 0.000000 0.000000 0.000000
									CHANNELS 3 Zrotation Yrotation Xrotation
									JOINT RightHandIndex1
									{
										OFFSET -0.622530 -0.000000 -0.000000
										CHANNELS 3 Zrotation Yrotation Xrotation
										End Site
										{
											OFFSET 0.000000 0.000000 0.000000
										}
									}
								}
								JOINT RThumb
								{
									OFFSET 0.000000 0.000000 0.000000
									CHANNELS 3 Zrotation Yrotation Xrotation
									End Site
									{
										OFFSET 0.000000 0.000000 0.000000
									}
								}
							}
						}
					}
				}
			}
		}
	}
}
}
MOTION
Frames: 12
Frame Time: 0.008333
-20.884953 17.533184 0.161299 35.317939 81.197286 62.922918 -8.931170 2.200641 -9.970981 -1.952754 2.810145 -4.617318 -2.207793 2.484367 2.440227 0.908761 -9.905013 -10.322409 1.138917 0.137543 -0.681081 0.000000 0.000000 0.000000 9.789259 24.488854 3.136988 -34.039783 32.941813 -7.483176 -4.236110 -22.164545 -0.011916 10.252168 0.499803 0.042084 -0.398478 0.053914 -0.000000 0.000000 0.000000 0.000000 0.000000 0.000000 0.000000 -12.456843 -4.705155 -1.335978 15.497764 10.801365 -57.808244 -178.995389 85.830416 179.733969 -22.714268 11.469817 -2.512875 0.263593 -0.843444 0.000000 0.000000 0.000000 0.000000 0.000000 0.000000 0.000000 
-20.657670 17.622330 0.158157 35.379403 81.281459 62.877560 -9.119967 2.283227 -10.060526 -1.969549 2.918806 -4.620798 -2.111673 2.590716 2.509900 0.594293 -9.827181 -10.336026 1.248532 0.147164 -0.683741 0.000000 0.000000 0.000000 9.599535 25.030889 3.169203 -34.269719 32.986724 -7.853970 -4.200367 -23.008756 -0.013414 10.206320 0.645824 0.055194 -0.397548 0.057045 -0.000000 0.000000 0.000000 0.000000 0.000000 0.000000 0.000000 -13.289488 -4.632417 -1.424582 15.443042 10.531029 -58.641090 -178.926918 85.515494 179.725468 -23.274347 11.396081 -2.562109 0.270861 -0.848770 -0.000000 0.000000 0.000000 0.000000 0.000000 0.000000 0.000000 
-20.431890 17.700049 0.153773 35.372528 81.431328 62.770051 -9.251319 2.335633 -10.143867 -1.970854 2.991129 -4.620432 -2.019659 2.660753 2.579740 0.294681 -9.717969 -10.352039 1.354785 0.156573 -0.687516 0.000000 0.000000 0.000000 9.374933 25.620030 3.213929 -34.565158 33.040738 -8.203997 -4.161735 -23.990568 -0.014966 10.122011 0.802950 0.068905 -0.396285 0.060377 -0.000000 0.000000 0.000000 0.000000 0.000000 0.000000 0.000000 -14.098410 -4.541592 -1.526240 15.397052 10.357719 -59.380256 -178.864757 85.316787 179.717317 -23.801226 11.305041 -2.603149 0.277124 -0.853319 -0.000000 0.000000 0.000000 0.000000 0.000000 0.000000 0.000000 
-20.207029 17.765666 0.148318 35.341745 81.637365 62.652165 -9.337882 2.358925 -10.231219 -1.960140 3.029447 -4.618224 -1.932358 2.696649 2.651695 0.016160 -9.576808 -10.371105 1.457230 0.165725 -0.692421 0.000000 0.000000 0.000000 9.105609 26.263191 3.269268 -34.903440 33.074928 -8.543455 -4.118874 -25.101418 -0.016574 10.015753 0.970063 0.083116 -0.394778 0.063894 -0.000000 0.000000 0.000000 0.000000 0.000000 0.000000 0.000000 -14.876047 -4.430297 -1.638920 15.353019 10.257174 -60.021475 -178.808993 85.216073 179.709642 -24.288254 11.193462 -2.634195 0.282362 -0.857013 -0.000000 0.000000 0.000000 0.000000 0.000000 0.000000 0.000000 
-19.982974 17.819202 0.141116 35.211677 81.918918 62.455296 -9.354551 2.358050 -10.327737 -1.932696 3.036821 -4.614638 -1.850232 2.701565 2.726723 -0.240114 -9.409277 -10.394880 1.554402 0.174499 -0.698811 0.000000 0.000000 0.000000 8.765135 26.969200 3.331838 -35.265443 33.051675 -8.882920 -4.070942 -26.323125 -0.018217 9.917042 1.141492 0.097430 -0.393329 0.067527 -0.000000 0.000000 0.000000 0.000000 0.000000 0.000000 0.000000 -15.615808 -4.300685 -1.760046 15.294355 10.209620 -60.563470 -178.760980 85.197668 179.702582 -24.730410 11.056493 -2.653345 0.286737 -0.859695 0.000000 0.000000 0.000000 0.000000 0.000000 0.000000 0.000000 
-19.759495 17.860547 0.132594 35.045175 82.259801 62.235760 -9.321291 2.336379 -10.427173 -1.893954 3.018185 -4.608903 -1.774240 2.680598 2.805264 -0.465984 -9.221222 -10.424435 1.645408 0.182833 -0.706925 0.000000 0.000000 0.000000 8.351002 27.731919 3.398385 -35.645153 32.941724 -9.238344 -4.016182 -27.632308 -0.019889 9.857431 1.310607 0.111742 -0.392084 0.071247 -0.000000 0.000000 0.000000 0.000000 0.000000 0.000000 0.000000 -16.305161 -4.155462 -1.885873 15.214937 10.193062 -61.007400 -178.720179 85.238749 179.696262 -25.124660 10.891543 -2.659696 0.290300 -0.861248 -0.000000 0.000000 0.000000 0.000000 0.000000 0.000000 0.000000 
-19.536599 17.889895 0.122795 34.852054 82.653988 61.995289 -9.243256 2.299545 -10.520875 -1.846153 2.979520 -4.599885 -1.705074 2.639999 2.886292 -0.656272 -9.019472 -10.459922 1.728831 0.190603 -0.716750 0.000000 0.000000 0.000000 7.859428 28.537404 3.464913 -36.045576 32.723553 -9.627959 -3.953494 -29.004361 -0.021589 9.866946 1.471158 0.125858 -0.391216 0.075002 -0.000000 0.000000 0.000000 0.000000 0.000000 0.000000 0.000000 -16.933005 -3.997073 -2.011962 15.106037 10.187324 -61.355791 -178.686372 85.316915 179.690803 -25.467527 10.699193 -2.652647 0.293148 -0.861589 0.000000 0.000000 0.000000 0.000000 0.000000 0.000000 0.000000 
-19.314411 17.907650 0.111500 34.591925 83.102631 61.684595 -9.115315 2.254566 -10.598592 -1.789219 2.927370 -4.586295 -1.642933 2.586640 2.967478 -0.809151 -8.811476 -10.500902 1.803036 0.197651 -0.728127 0.000000 0.000000 0.000000 7.287021 29.364180 3.527110 -36.478313 32.386277 -10.069903 -3.882540 -30.416881 -0.023320 9.969352 1.617474 0.140074 -0.390861 0.078722 -0.000000 0.000000 0.000000 0.000000 0.000000 0.000000 0.000000 -17.491040 -3.827590 -2.133163 14.957901 10.174146 -61.611522 -178.659644 85.411636 179.686364 -25.752248 10.483758 -2.632695 0.295347 -0.860708 -0.000000 0.000000 0.000000 0.000000 0.000000 0.000000 0.000000 
-19.093484 17.914028 0.099000 34.285930 83.587513 61.311648 -8.953638 2.207446 -10.645882 -1.727508 2.868984 -4.566577 -1.587564 2.528037 3.045890 -0.922051 -8.604421 -10.546799 1.867154 0.203894 -0.740916 0.000000 0.000000 0.000000 6.643862 30.182882 3.581471 -36.962979 31.931591 -10.577031 -3.803149 -31.850633 -0.025084 10.177995 1.745896 0.154493 -0.390969 0.082346 -0.000000 0.000000 0.000000 0.000000 0.000000 0.000000 0.000000 -17.972616 -3.649313 -2.244366 14.767969 10.140951 -61.779552 -178.639236 85.504240 179.683071 -25.970089 10.254818 -2.601138 0.296817 -0.858728 -0.000000 0.000000 0.000000 0.000000 0.000000 0.000000 0.000000 
-18.874206 17.909278 0.085780 33.957705 84.089957 60.890425 -8.778682 2.163856 -10.653636 -1.666416 2.811642 -4.540301 -1.539775 2.471536 3.118299 -0.990206 -8.406085 -10.596716 1.919901 0.209217 -0.754870 0.000000 0.000000 0.000000 5.949669 30.956931 3.625028 -37.521876 31.373352 -11.156559 -3.715569 -33.292460 -0.026869 10.494949 1.853867 0.169115 -0.391365 0.085816 -0.000000 0.000000 0.000000 0.000000 0.000000 0.000000 0.000000 -18.366201 -3.464960 -2.339989 14.535209 10.079361 -61.862567 -178.624715 85.581591 179.681065 -26.109405 10.026088 -2.560674 0.297368 -0.855843 -0.000000 0.000000 0.000000 0.000000 0.000000 0.000000 0.000000 
-18.656786 17.893434 0.071878 33.585219 84.593083 60.392831 -8.600717 2.128905 -10.613742 -1.608308 2.761431 -4.507170 -1.498036 2.423263 3.181041 -1.017588 -8.222150 -10.650815 1.961031 0.213612 -0.770100 0.000000 0.000000 0.000000 5.215788 31.655838 3.656187 -38.176568 30.730163 -11.808846 -3.620881 -34.735116 -0.028654 10.909294 1.941694 0.183939 -0.391771 0.089041 -0.000000 0.000000 0.000000 0.000000 0.000000 0.000000 0.000000 -18.674182 -3.276118 -2.416008 14.260210 9.989304 -61.866126 -178.615877 85.637387 179.680438 -26.157267 9.813441 -2.514202 0.296787 -0.852389 -0.000000 0.000000 0.000000 0.000000 0.000000 0.000000 0.000000 
-18.441969 17.866350 0.058044 33.224002 85.070196 59.875484 -8.448250 2.105059 -10.527521 -1.559645 2.723241 -4.468669 -1.462573 2.387826 3.231583 -1.002224 -8.057877 -10.709682 1.990165 0.217079 -0.786813 0.000000 0.000000 0.000000 4.465871 32.249182 3.674831 -38.942033 30.026715 -12.525806 -3.519978 -36.177711 -0.030404 11.399733 2.012398 0.198967 -0.391778 0.091942 -0.000000 0.000000 0.000000 0.000000 0.000000 0.000000 0.000000 -18.890770 -3.085271 -2.468993 13.947842 9.877009 -61.792287 -178.612418 85.671243 179.681242 -26.102712 9.632856 -2.465020 0.294781 -0.848698 -0.000000 0.000000 0.000000 0.000000 0.000000 0.000000 0.000000 
